<?xml version="1.0" encoding="utf-8"?>
<!DOCTYPE svg PUBLIC "-//W3C//DTD SVG 1.0//EN" "http://www.w3.org/TR/2001/REC-SVG-20010904/DTD/svg10.dtd">
<svg version="1.0" xmlns="http://www.w3.org/2000/svg" width="512px" height="512px" viewBox="0 0 512 512" preserveAspectRatio="xMidYMid meet">
 <g fill="#000000">
  <path d="M0 256 l0 -69 17 0 17 0 0 23 0 23 24 0 24 0 0 -23 0 -23 17 0 17 0 0 69 0 69 -17 0 -17 0 0 -29 0 -29 -24 0 -24 0 0 29 0 29 -17 0 -17 0 0 -69z"/>
  <path d="M175 273 l0 -52 -17.5 0 -17.5 0 0 -17 0 -17 52 0 52 0 0 17 0 17 -17.5 0 -17.5 0 0 52 0 52 -17 0 -17 0 0 -52z"/>
  <path d="M303 273 l0 -52 -17.5 0 -17.5 0 0 -17 0 -17 52 0 52 0 0 17 0 17 -17.5 0 -17.5 0 0 52 0 52 -17 0 -17 0 0 -52z"/>
  <path d="M396 256 l0 -69 44 0 c42.4 0 44.1 0.1 49.7 2.1 4.1 1.6 7.4 3.8 11.4 7.8 7.9 7.9 9.9 13.7 10.6 30.6 0.6 14.9 -0.7 25.8 -4 32.4 -3.3 6.7 -10.7 13.6 -17.4 16.2 -5.4 2.2 -7.5 2.3 -33 2.7 l-27.3 0.4 0 22.9 0 22.9 -17 0 -17 0 0 -69z m82 -23 l0 -12 -24 0 -24 0 0 12 0 12 24 0 24 0 0 -12z"/>
 </g>
</svg>